<?xml version="1.0" encoding="UTF-8"?>
<!DOCTYPE svg PUBLIC "-//W3C//DTD SVG 1.1//EN" "http://www.w3.org/Graphics/SVG/1.1/DTD/svg11.dtd">
<!-- Creator: CorelDRAW -->
<svg xmlns="http://www.w3.org/2000/svg" xml:space="preserve" width="177.8mm" height="177.8mm" style="shape-rendering:geometricPrecision; text-rendering:geometricPrecision; image-rendering:optimizeQuality; fill-rule:evenodd; clip-rule:evenodd"
viewBox="0 0 177.8 177.8"
 xmlns:xlink="http://www.w3.org/1999/xlink">
 <defs>
  <style type="text/css">
   <![CDATA[
    .str0 {stroke:#2B2A29;stroke-width:0.2}
    .fil1 {fill:none}
    .fil0 {fill:#74609E}
    .fil2 {fill:#74609E;fill-rule:nonzero}
   ]]>
  </style>
    <clipPath id="id0">
     <path d="M88.9002 19.9342c38.0888,0 68.9658,30.877 68.9658,68.9658 0,38.0888 -30.877,68.9658 -68.9658,68.9658 -38.0888,0 -68.9658,-30.877 -68.9658,-68.9658 0,-38.0888 30.877,-68.9658 68.9658,-68.9658z"/>
    </clipPath>
      <mask id="id1">
  <radialGradient id="id2" gradientUnits="userSpaceOnUse" cx="82.8805" cy="41.5542" r="60.3828" fx="82.8805" fy="41.5542">
   <stop offset="0" style="stop-opacity:0; stop-color:white"/>
   <stop offset="1" style="stop-opacity:0.168627; stop-color:white"/>
  </radialGradient>
       <rect style="fill:url(#id2)" x="34.5103" y="33.2677" width="110.277" height="112.186"/>
      </mask>
 </defs>
 <g id="Layer_x0020_1">
  <metadata id="CorelCorpID_0Corel-Layer"/>
  <g id="_388592896">
   <g>
   </g>
   <g style="clip-path:url(#id0)">
    <g id="_385919984">
     <path id="_385920104" class="fil0" style="mask:url(#id1)" d="M39.6447 83.7353l-0.1231 -1.1994 0.1231 1.1994c0.7622,-3.0946 1.117,-5.9924 2.0364,-9.1622 2.3704,-8.1726 6.3871,-15.5709 12.282,-21.7808 1.5391,-1.6214 4.3805,-4.1799 6.2415,-5.3628 2.2443,-1.4264 2.7263,2.5368 8.2673,1.7736 6.6016,-0.909 9.164,-9.3198 4.1848,-13.8032 -4.9892,-4.4926 -12.5677,-1.4685 -13.3829,5.2566 -0.2551,2.1054 -1.0945,2.1193 -2.6381,3.2436 -12.8678,9.3716 -20.4031,24.8095 -21.9326,40.4786 -0.7811,11.8529 0.7229,22.2728 6.7014,32.6787 10.1977,17.7498 29.0638,28.4097 49.5257,27.9764 2.5829,-0.0547 6.7714,-0.2917 9.2168,-0.9769 2.2076,-0.6186 3.3803,-2.607 0.9622,-3.9259 -2.2648,-1.2352 -5.7348,-0.3157 -8.2801,-0.1635 -17.8759,1.0668 -35.2004,-7.414 -45.192,-22.2756 -4.2101,-6.2621 -0.9526,-6.4967 4.6657,-9.142 4.5391,-2.1366 9.0973,-4.3651 13.6624,-6.4298 4.7808,-2.1623 5.5229,2.3215 8.9843,7.8019 4.9407,7.8219 11.1639,15.3299 18.5836,20.911 1.2493,0.9394 4.4547,3.2686 5.8408,3.6381 1.9505,0.5199 3.3207,-1.1975 2.9434,-3.1327 -0.3877,-1.9882 -2.8243,-3.1084 -4.3787,-4.2481 -1.854,-1.3598 -3.6903,-2.8406 -5.3973,-4.3817 -3.4129,-3.0816 -6.6661,-6.6021 -9.486,-10.2345 -1.765,-2.2735 -7.0075,-9.5892 -7.6493,-12.0406 -0.672,-2.5661 1.4973,-3.5153 3.3953,-4.4116l20.4712 -9.6629c6.5838,-3.1047 7.3552,-3.8786 9.9198,3.6027 2.8466,8.3048 4.5005,17.0841 4.6706,25.8662 0.0401,2.0604 -0.4264,6.9108 0.2251,8.5115 0.6886,1.6925 2.8878,3.4745 4.437,1.5732 1.0884,-1.3362 1.1024,-6.0531 1.1124,-7.818 0.0649,-11.5739 -2.8835,-22.8081 -7.0805,-33.5073 -0.9157,-2.3353 -0.6275,-4.0457 1.7064,-5.2712 2.8592,-1.5016 19.0109,-9.1678 20.3222,-9.1962 4.0882,-0.0879 4.949,10.768 5.1513,13.6853 0.4299,6.2022 -0.2739,11.2352 -1.5611,17.2547l0 0c-3.1656,11.4393 -8.7612,21.2292 -17.6588,29.095 -1.1115,0.9827 -1.5737,1.8216 -2.9853,0.8503 -2.5177,-1.7319 -5.3593,-2.038 -8.1794,-0.7762 -5.3473,2.3926 -6.1394,9.9316 -1.5644,13.5177 4.659,3.6517 11.7432,1.1331 12.8685,-4.6911 0.3722,-1.9272 -0.2881,-2.3432 1.4567,-3.7222 10.1709,-8.0395 19.5525,-23.2532 21.4171,-35.5892 4.2525,-20.8066 -2.3411,-40.8656 -19.2674,-53.9997 -12.0574,-9.3561 -27.9846,-13.7144 -43.0567,-11.2145 -1.7797,0.2953 -4.5625,1.8792 -2.6794,3.7573 1.8086,1.8036 4.8862,0.8717 7.1727,0.7069 15.1672,-1.0915 29.718,4.1752 40.3473,14.988 1.7706,1.801 7.7727,7.8825 6.4902,10.479 -0.8639,1.7489 -9.9438,5.4546 -12.1856,6.5109 -2.1895,1.0318 -4.3794,2.0639 -6.5694,3.0956 -5.891,2.7752 -5.5635,0.6437 -9.2868,-5.5383 -3.5272,-5.857 -7.468,-11.1938 -12.4207,-15.9723 -2.0005,-1.9301 -8.2029,-7.1983 -10.7357,-7.694 -2.0055,-0.3924 -3.0469,1.4036 -2.2476,3.2387 1.2607,2.8954 10.6633,4.7467 22.1711,24.6654 3.688,6.3837 1.8072,6.3429 -4.154,9.1553l-19.6898 9.2973c-1.7168,0.811 -4.0085,2.3259 -5.7629,0.831 -1.7623,-1.5014 -4.5389,-11.1531 -5.2121,-13.7503 -1.4422,-5.5625 -2.3051,-11.3088 -2.0106,-17.0664 0.1103,-2.1557 0.944,-5.3201 -0.0486,-7.2039 -0.9825,-1.8645 -2.9418,-2.0144 -3.7941,-0.0453 -1.5692,3.626 -1.1653,12.7892 -0.6446,16.7611 0.7038,5.3661 2.0624,10.6643 3.8409,15.7718 2.3499,6.7485 4.8937,8.8256 -0.6774,11.4439 -4.3817,2.0593 -8.7597,4.1272 -13.1388,6.1921 -5.9144,2.789 -7.8218,4.63 -9.4451,-3.1829 -1.2541,-6.0363 -1.1644,-11.1423 -0.8803,-17.2356zm100.512 16.7625c0.0086,0 0.0178,-0.0004 0.0278,-0.0016 -0.01,0.0012 -0.0192,0.0016 -0.0278,0.0016zm0.6247 -0.2771l0 0 2.4269 -1.0764 -2.4269 1.0764z"/>
    </g>
   </g>
   <path class="fil1 str0" d="M88.9002 19.9342c38.0888,0 68.9658,30.877 68.9658,68.9658 0,38.0888 -30.877,68.9658 -68.9658,68.9658 -38.0888,0 -68.9658,-30.877 -68.9658,-68.9658 0,-38.0888 30.877,-68.9658 68.9658,-68.9658z"/>
   <path class="fil0" d="M84.9779 24.6071c9.6236,-0.4829 19.3471,1.0053 27.4392,4.3249 5.5554,2.279 10.9767,5.1461 15.5066,8.7154 0.8499,0.6696 1.4477,1.137 2.1978,1.8023l2.1139 1.8853c1.6584,1.3774 2.7327,2.4462 4.1274,4.1035 0.3959,0.4705 0.5023,0.5084 0.9889,1.0057 0.4339,0.4433 0.4883,0.6411 0.8915,1.1114 8.6665,10.1066 14.0202,23.3413 14.9556,37.3467 0.6511,9.7495 -1.1229,19.3552 -4.3318,27.5151 -2.3646,6.013 -7.0593,14.148 -11.406,18.822 -0.3804,0.4091 -0.6367,0.5569 -1.0097,0.9844 -22.6209,25.9261 -65.2049,28.507 -90.8948,4.2438l-5.1044 -5.1195c-0.4113,-0.4187 -0.5156,-0.6262 -0.9237,-1.0832 -8.4446,-9.4544 -14.0901,-24.0874 -14.9257,-37.3169 -2.3074,-36.5328 26.309,-66.6317 60.3752,-68.3409zm-68.196 68.0686c1.8144,38.6212 34.943,70.2811 75.8986,68.3381 38.4889,-1.826 70.2874,-34.8296 68.3355,-75.8553 -0.5037,-10.5884 -3.395,-20.3379 -7.5642,-28.5959 -2.1064,-4.1721 -4.4772,-7.8487 -6.8767,-11.1152 -3.2116,-4.3721 -5.0225,-5.8548 -8.5931,-9.4123 -0.9638,-0.9602 -1.3774,-1.3191 -2.4065,-2.2543 -0.4619,-0.4197 -0.7981,-0.5814 -1.2571,-0.9659 -13.2442,-11.0942 -31.2975,-16.8566 -49.2015,-16.0367 -38.5996,1.7675 -70.2568,34.9925 -68.335,75.8975z"/>
   <g id="_385928216">
    <path id="_385924784" class="fil0" d="M62.6276 86.8409c-0.0447,-2.3682 8.8998,-13.8907 3.7933,-30.4165 -0.391,-1.2651 -1.0621,-2.6973 -1.3207,-3.8201 -0.9761,1.1054 -2.7978,5.8246 -3.4405,7.1985 -6.4947,13.8831 -12.8427,28.9693 -19.2882,43.0076 -1.0079,2.1954 -2.5046,5.0751 -3.1891,7.2595l12.864 -0.0025c2.3332,-3.9212 4.2354,-7.0383 8.7862,-9.4211 10.7645,-5.6364 18.4464,0.8454 20.8885,-6.442 0.8823,-2.6328 -0.4678,-5.1788 -1.9845,-6.2712 -2.1012,-1.5135 -5.1703,-1.0988 -8.1968,-1.0988 -2.9704,0 -5.9419,-0.0072 -8.9122,0.0066z"/>
    <path id="_385924736" class="fil0" d="M109.092 110.859c-0.8764,-2.5825 -2.773,-6.2764 -3.9668,-8.882 -1.3684,-2.987 -2.6914,-6.0331 -4.0095,-8.9856 -2.8091,-6.292 -5.6623,-12.73 -8.5316,-19.1448l-0.0002 -0.0004c-1.323,-2.9637 -6.0726,-13.8081 -9.5749,-21.0045 -2.3481,-4.8247 -1.9993,-6.518 -6.4447,-6.8623l-9.2391 -0.7156 0.8497 1.9596 -0.0526 -0.0096c0.7707,2.2114 2.9057,6.7349 3.9582,9.1642 1.4337,3.3093 2.8877,6.6644 4.3554,10.0439 2.7182,6.2589 5.4837,12.6017 8.2548,18.8929l0.0012 0.0026c2.457,5.5781 4.9185,11.1157 7.3553,16.5182 1.6419,3.6404 2.6453,5.5433 5.6733,7.3246 2.7462,1.6156 7.7764,2.4187 11.3715,1.6988z"/>
    <path id="_385924640" class="fil0" d="M127.392 51.2843c-3.1407,1.7409 -5.7383,4.2189 -7.5109,7.3627 -1.7248,3.059 -11.7766,29.9129 -13.5886,34.3496 -0.9362,2.2922 -1.3649,2.2702 -0.2909,4.5142 1.1121,2.3234 4.9378,11.4908 5.6684,12.2974l20.8526 -50.4839 4.3445 -10.4514c-4.5659,-0.731 -9.4752,2.4114 -9.4752,2.4114l0.0001 0z"/>
   </g>
   <path class="fil2" d="M48.3299 128.883l-0.4711 -1.7929 -3.1079 0 -0.4845 1.7929 -2.8378 0 3.1191 -9.6028 3.4473 0 3.1592 9.6028 -2.8243 0zm-1.007 -3.9117l-0.413 -1.5696c-0.096,-0.3483 -0.2121,-0.7993 -0.3506,-1.3552 -0.1362,-0.5537 -0.2277,-0.9489 -0.2701,-1.1901 -0.0402,0.2233 -0.1161,0.5895 -0.2322,1.0985 -0.1161,0.5113 -0.3729,1.516 -0.7681,3.0164l2.034 0zm9.6989 -5.651l2.8913 0 -3.1324 9.5627 -3.0432 0 -3.1191 -9.5627 2.9047 0 1.3017 4.8472c0.2702,1.0762 0.4175,1.8264 0.4443,2.2484 0.0313,-0.3037 0.0916,-0.6855 0.1831,-1.1432 0.0915,-0.4577 0.1719,-0.8171 0.2411,-1.0806l1.3285 -4.8718zm13.03 9.5627l-3.3892 0 -3.492 -6.7383 -0.058 0c0.0826,1.0605 0.1228,1.8688 0.1228,2.427l0 4.3113 -2.2886 0 0 -9.5627 3.3759 0 3.4785 6.6446 0.0402 0c-0.0625,-0.9623 -0.0915,-1.7371 -0.0915,-2.322l0 -4.3226 2.3019 0 0 9.5627zm7.7452 0l-5.6778 0 0 -9.5627 5.6778 0 0 2.072 -3.0945 0 0 1.5048 2.8645 0 0 2.0742 -2.8645 0 0 1.8063 3.0945 0 0 2.1054zm5.8943 0l-2.5854 0 0 -7.4505 -2.3354 0 0 -2.1122 7.2495 0 0 2.1122 -2.3287 0 0 7.4505zm14.0236 0l-3.0543 0 -0.9154 -4.1662c-0.0447,-0.1742 -0.1139,-0.5225 -0.2077,-1.0405 -0.0937,-0.5179 -0.1607,-0.9533 -0.2054,-1.3016 -0.0357,0.2835 -0.0915,0.6363 -0.1697,1.056 -0.0781,0.422 -0.1563,0.8083 -0.2322,1.1611 -0.0759,0.3527 -0.3929,1.7839 -0.9511,4.2912l-3.0566 0 -2.3666 -9.5627 2.4917 0 1.0404 4.7937c0.2344,1.0605 0.3974,1.9044 0.4845,2.5318 0.0558,-0.4443 0.1563,-1.0493 0.3037,-1.8107 0.1451,-0.7636 0.2813,-1.3954 0.4085,-1.8978l0.844 -3.617 2.3934 0 0.8172 3.617c0.1407,0.5805 0.2813,1.2481 0.4265,2.0072 0.1429,0.7591 0.2389,1.3262 0.288,1.7013 0.0558,-0.4845 0.2099,-1.324 0.4644,-2.5185l1.0583 -4.807 2.4939 0 -2.3555 9.5627zm12.4072 -4.7936c0,1.6075 -0.3952,2.8311 -1.1856,3.6683 -0.7881,0.8373 -1.9446,1.257 -3.4651,1.257 -1.5004,0 -2.6502,-0.422 -3.4518,-1.2637 -0.7993,-0.8417 -1.1989,-2.0675 -1.1989,-3.675 0,-1.5919 0.3974,-2.8087 1.1922,-3.6482 0.7971,-0.8395 1.9536,-1.2593 3.4719,-1.2593 1.5205,0 2.6748,0.4175 3.4584,1.2503 0.7859,0.8328 1.1789,2.0564 1.1789,3.6706zm-6.582 0c0,1.8487 0.6453,2.773 1.9313,2.773 0.6542,0 1.1387,-0.2255 1.4557,-0.6743 0.3148,-0.4487 0.4733,-1.1498 0.4733,-2.0987 0,-0.9556 -0.1607,-1.6611 -0.48,-2.1166 -0.3215,-0.4555 -0.7993,-0.6832 -1.4356,-0.6832 -1.2972,0 -1.9447,0.9333 -1.9447,2.7998zm10.8911 1.3128l0 3.4808 -2.5833 0 0 -9.5627 3.1325 0c2.5989,0 3.8983,0.9422 3.8983,2.8244 0,1.1097 -0.5403,1.9648 -1.6209,2.5721l2.7864 4.1662 -2.9316 0 -2.0272 -3.4808 -0.6542 0zm0 -1.9424l0.4845 0c0.902,0 1.353,-0.3974 1.353,-1.1968 0,-0.6586 -0.4421,-0.9868 -1.3262,-0.9868l-0.5113 0 0 2.1836zm14.6532 5.4232l-2.9181 0 -1.8889 -3.6572 -0.7658 0.4577 0 3.1995 -2.5967 0 0 -9.5627 2.5967 0 0 4.1529c0.1317,-0.2568 0.3952,-0.6654 0.7903,-1.2236l2.0095 -2.9293 2.8266 0 -3.0164 4.2846 2.9628 5.2781zm7.2875 -2.9047c0,0.5939 -0.1518,1.1208 -0.451,1.5807 -0.3014,0.4599 -0.7368,0.8172 -1.3016,1.0717 -0.5671,0.2545 -1.2325,0.384 -1.9961,0.384 -0.6363,0 -1.1699,-0.0446 -1.603,-0.1339 -0.431,-0.0916 -0.8797,-0.2456 -1.3464,-0.4689l0 -2.3019c0.4912,0.2523 1.0047,0.4488 1.5361,0.5917 0.5314,0.1406 1.0204,0.2121 1.4647,0.2121 0.384,0 0.6653,-0.067 0.8439,-0.1988 0.1787,-0.1339 0.268,-0.3036 0.268,-0.5135 0,-0.1317 -0.0358,-0.2456 -0.1072,-0.3438 -0.0714,-0.0982 -0.1876,-0.1965 -0.3461,-0.297 -0.1585,-0.1004 -0.5827,-0.3058 -1.2726,-0.6162 -0.6229,-0.2835 -1.0918,-0.5582 -1.4021,-0.8238 -0.3126,-0.2657 -0.5448,-0.5716 -0.6944,-0.9155 -0.1496,-0.3438 -0.2255,-0.7524 -0.2255,-1.2235 0,-0.8797 0.3215,-1.5673 0.9623,-2.0608 0.6408,-0.4912 1.5204,-0.739 2.6413,-0.739 0.9913,0 2.0005,0.23 3.0297,0.6877l-0.7926 1.9938c-0.8931,-0.4086 -1.6656,-0.614 -2.3153,-0.614 -0.3349,0 -0.5805,0.058 -0.7323,0.1764 -0.1518,0.1183 -0.23,0.2634 -0.23,0.4376 0,0.1875 0.0983,0.3572 0.2925,0.5046 0.1942,0.1473 0.7212,0.4197 1.5785,0.8105 0.8239,0.3706 1.3977,0.7702 1.717,1.1944 0.3215,0.4243 0.4822,0.9601 0.4822,1.6054z"/>
   <path class="fil2" d="M53.1094 133.159c-0.2687,0 -0.4788,0.1104 -0.6293,0.3312 -0.1515,0.2199 -0.2267,0.5238 -0.2267,0.9118 0,0.8052 0.3068,1.2078 0.9195,1.2078 0.1847,0 0.3645,-0.0254 0.5375,-0.0772 0.1739,-0.0518 0.3489,-0.1133 0.5238,-0.1856l0 0.9557c-0.3489,0.1544 -0.7437,0.2326 -1.1844,0.2326 -0.6323,0 -1.116,-0.1838 -1.4531,-0.5502 -0.3372,-0.3665 -0.5052,-0.8961 -0.5052,-1.589 0,-0.4329 0.0811,-0.814 0.2443,-1.1423 0.1632,-0.3284 0.3977,-0.5805 0.7045,-0.7574 0.3059,-0.1759 0.6665,-0.2648 1.0808,-0.2648 0.4525,0 0.8844,0.0987 1.2968,0.2951l-0.3459 0.8903c-0.1554,-0.0724 -0.3098,-0.1339 -0.4642,-0.1828 -0.1544,-0.0498 -0.3205,-0.0752 -0.4984,-0.0752zm5.7411 1.2205c0,0.7036 -0.1729,1.2391 -0.5189,1.6056 -0.3449,0.3664 -0.8511,0.5502 -1.5166,0.5502 -0.6567,0 -1.16,-0.1847 -1.5108,-0.5531 -0.3498,-0.3685 -0.5247,-0.905 -0.5247,-1.6085 0,-0.6968 0.1739,-1.2294 0.5218,-1.5968 0.3489,-0.3675 0.855,-0.5512 1.5196,-0.5512 0.6654,0 1.1707,0.1828 1.5137,0.5473 0.3439,0.3645 0.5159,0.9 0.5159,1.6065zm-2.8808 0c0,0.8092 0.2824,1.2137 0.8453,1.2137 0.2863,0 0.4984,-0.0987 0.6371,-0.2951 0.1378,-0.1964 0.2072,-0.5033 0.2072,-0.9186 0,-0.4182 -0.0704,-0.727 -0.2101,-0.9264 -0.1407,-0.1993 -0.3498,-0.299 -0.6283,-0.299 -0.5678,0 -0.8512,0.4085 -0.8512,1.2254zm7.6213 2.0981l-1.4834 0 -1.5283 -2.9492 -0.0254 0c0.0361,0.4641 0.0537,0.8179 0.0537,1.0622l0 1.887 -1.0016 0 0 -4.1854 1.4775 0 1.5225 2.9082 0.0176 0c-0.0274,-0.4212 -0.0401,-0.7603 -0.0401,-1.0163l0 -1.8919 1.0075 0 0 4.1854zm4.89 0l-1.4834 0 -1.5283 -2.9492 -0.0254 0c0.0361,0.4641 0.0537,0.8179 0.0537,1.0622l0 1.887 -1.0016 0 0 -4.1854 1.4775 0 1.5225 2.9082 0.0176 0c-0.0274,-0.4212 -0.0401,-0.7603 -0.0401,-1.0163l0 -1.8919 1.0075 0 0 4.1854zm3.39 0l-2.485 0 0 -4.1854 2.485 0 0 0.9068 -1.3544 0 0 0.6587 1.2538 0 0 0.9078 -1.2538 0 0 0.7906 1.3544 0 0 0.9215zm2.5965 -3.3186c-0.2687,0 -0.4788,0.1104 -0.6293,0.3312 -0.1515,0.2199 -0.2267,0.5238 -0.2267,0.9118 0,0.8052 0.3068,1.2078 0.9195,1.2078 0.1847,0 0.3645,-0.0254 0.5375,-0.0772 0.1739,-0.0518 0.3489,-0.1133 0.5238,-0.1856l0 0.9557c-0.3489,0.1544 -0.7437,0.2326 -1.1844,0.2326 -0.6323,0 -1.116,-0.1838 -1.4531,-0.5502 -0.3372,-0.3665 -0.5052,-0.8961 -0.5052,-1.589 0,-0.4329 0.0811,-0.814 0.2443,-1.1423 0.1632,-0.3284 0.3977,-0.5805 0.7045,-0.7574 0.3059,-0.1759 0.6665,-0.2648 1.0808,-0.2648 0.4525,0 0.8844,0.0987 1.2968,0.2951l-0.3459 0.8903c-0.1554,-0.0724 -0.3098,-0.1339 -0.4642,-0.1828 -0.1544,-0.0498 -0.3205,-0.0752 -0.4984,-0.0752zm3.7887 3.3186l-1.1316 0 0 -3.261 -1.0222 0 0 -0.9244 3.173 0 0 0.9244 -1.0192 0 0 3.261zm1.6173 0l0 -4.1854 1.1365 0 0 4.1854 -1.1365 0zm6.0264 0l-1.4834 0 -1.5283 -2.9492 -0.0254 0c0.0361,0.4641 0.0537,0.8179 0.0537,1.0622l0 1.887 -1.0016 0 0 -4.1854 1.4775 0 1.5225 2.9082 0.0176 0c-0.0274,-0.4212 -0.0401,-0.7603 -0.0401,-1.0163l0 -1.8919 1.0075 0 0 4.1854zm2.5858 -2.4509l1.8059 0 0 2.2564c-0.4906,0.1681 -1.029,0.2522 -1.6173,0.2522 -0.645,0 -1.1434,-0.1877 -1.4962,-0.5619 -0.3517,-0.3733 -0.5276,-0.9069 -0.5276,-1.5997 0,-0.6763 0.1925,-1.202 0.5775,-1.5783 0.386,-0.3752 0.9264,-0.5638 1.6212,-0.5638 0.2629,0 0.5121,0.0254 0.7456,0.0743 0.2336,0.0498 0.4378,0.1133 0.6108,0.1895l-0.3577 0.8874c-0.301,-0.1486 -0.6323,-0.2238 -0.9928,-0.2238 -0.3303,0 -0.5864,0.1075 -0.7662,0.3225 -0.1808,0.2149 -0.2707,0.5218 -0.2707,0.9205 0,0.3909 0.0811,0.6899 0.2443,0.8941 0.1632,0.2053 0.3987,0.3079 0.7066,0.3079 0.168,0 0.3224,-0.0157 0.4632,-0.0479l0 -0.6557 -0.7466 0 0 -0.8737zm6.0294 2.4509l-1.1316 0 0 -3.261 -1.0222 0 0 -0.9244 3.173 0 0 0.9244 -1.0192 0 0 3.261zm5.2046 0l-1.1365 0 0 -1.7062 -1.3143 0 0 1.7062 -1.1365 0 0 -4.1854 1.1365 0 0 1.5518 1.3143 0 0 -1.5518 1.1365 0 0 4.1854zm3.39 0l-2.485 0 0 -4.1854 2.485 0 0 0.9068 -1.3544 0 0 0.6587 1.2538 0 0 0.9078 -1.2538 0 0 0.7906 1.3544 0 0 0.9215zm6.7771 0l-1.3369 0 -0.4006 -1.8235c-0.0196,-0.0762 -0.0499,-0.2287 -0.0909,-0.4554 -0.0411,-0.2267 -0.0704,-0.4172 -0.0899,-0.5697 -0.0157,0.1241 -0.0401,0.2785 -0.0743,0.4622 -0.0342,0.1847 -0.0684,0.3538 -0.1016,0.5082 -0.0332,0.1544 -0.172,0.7808 -0.4163,1.8782l-1.3378 0 -1.0359 -4.1854 1.0906 0 0.4554 2.0981c0.1026,0.4641 0.1739,0.8335 0.212,1.1081 0.0245,-0.1944 0.0684,-0.4593 0.1329,-0.7925 0.0636,-0.3342 0.1232,-0.6108 0.1789,-0.8306l0.3694 -1.5831 1.0475 0 0.3577 1.5831c0.0616,0.254 0.1231,0.5462 0.1866,0.8785 0.0626,0.3322 0.1046,0.5805 0.1261,0.7446 0.0244,-0.212 0.0919,-0.5795 0.2033,-1.1023l0.4632 -2.1039 1.0915 0 -1.0309 4.1854zm5.4303 -2.0981c0,0.7036 -0.1729,1.2391 -0.5189,1.6056 -0.3449,0.3664 -0.8511,0.5502 -1.5166,0.5502 -0.6567,0 -1.16,-0.1847 -1.5108,-0.5531 -0.3498,-0.3685 -0.5247,-0.905 -0.5247,-1.6085 0,-0.6968 0.1739,-1.2294 0.5218,-1.5968 0.3489,-0.3675 0.855,-0.5512 1.5196,-0.5512 0.6654,0 1.1707,0.1828 1.5137,0.5473 0.3439,0.3645 0.5159,0.9 0.5159,1.6065zm-2.8808 0c0,0.8092 0.2824,1.2137 0.8453,1.2137 0.2863,0 0.4984,-0.0987 0.6371,-0.2951 0.1378,-0.1964 0.2072,-0.5033 0.2072,-0.9186 0,-0.4182 -0.0704,-0.727 -0.2101,-0.9264 -0.1407,-0.1993 -0.3498,-0.299 -0.6283,-0.299 -0.5678,0 -0.8512,0.4085 -0.8512,1.2254zm4.7669 0.5746l0 1.5235 -1.1306 0 0 -4.1854 1.371 0c1.1375,0 1.7062,0.4124 1.7062,1.2362 0,0.4856 -0.2365,0.8599 -0.7095,1.1257l1.2196 1.8235 -1.2831 0 -0.8873 -1.5235 -0.2863 0zm0 -0.8502l0.212 0c0.3948,0 0.5922,-0.1739 0.5922,-0.5237 0,-0.2883 -0.1934,-0.432 -0.5804,-0.432l-0.2238 0 0 0.9557zm2.8379 2.3737l0 -4.1854 1.1306 0 0 3.2717 1.6124 0 0 0.9137 -2.743 0zm6.9655 -2.1811c0,0.6977 -0.1925,1.2361 -0.5775,1.6143 -0.3841,0.3782 -0.9245,0.5668 -1.6212,0.5668l-1.3544 0 0 -4.1854 1.4482 0c0.6723,0 1.1912,0.172 1.5567,0.515 0.3655,0.344 0.5482,0.8404 0.5482,1.4893zm-1.1746 0.04c0,-0.384 -0.0752,-0.6684 -0.2267,-0.8531 -0.1525,-0.1857 -0.3831,-0.2785 -0.6919,-0.2785l-0.3293 0 0 2.3453 0.2521 0c0.344,0 0.5951,-0.0997 0.7554,-0.299 0.1603,-0.1994 0.2404,-0.5043 0.2404,-0.9147z"/>
  </g>
 </g>
</svg>
