<?xml version="1.0" encoding="UTF-8"?>
<!DOCTYPE svg PUBLIC "-//W3C//DTD SVG 1.1//EN" "http://www.w3.org/Graphics/SVG/1.1/DTD/svg11.dtd">
<!-- Creator: CorelDRAW -->
<svg xmlns="http://www.w3.org/2000/svg" xml:space="preserve" width="177.8mm" height="177.8mm" style="shape-rendering:geometricPrecision; text-rendering:geometricPrecision; image-rendering:optimizeQuality; fill-rule:evenodd; clip-rule:evenodd"
viewBox="0 0 177.8 177.8"
 xmlns:xlink="http://www.w3.org/1999/xlink">
 <defs>
  <style type="text/css">
   <![CDATA[
    .str0 {stroke:#2B2A29;stroke-width:0.2}
    .fil1 {fill:none}
    .fil0 {fill:#74609E}
    .fil2 {fill:#74609E;fill-rule:nonzero}
   ]]>
  </style>
    <clipPath id="id0">
     <path d="M88.9002 19.9342c38.0888,0 68.9658,30.877 68.9658,68.9658 0,38.0888 -30.877,68.9658 -68.9658,68.9658 -38.0888,0 -68.9658,-30.877 -68.9658,-68.9658 0,-38.0888 30.877,-68.9658 68.9658,-68.9658z"/>
    </clipPath>
      <mask id="id1">
  <radialGradient id="id2" gradientUnits="userSpaceOnUse" cx="82.8805" cy="41.5542" r="60.3828" fx="82.8805" fy="41.5542">
   <stop offset="0" style="stop-opacity:0; stop-color:white"/>
   <stop offset="1" style="stop-opacity:0.168627; stop-color:white"/>
  </radialGradient>
       <rect style="fill:url(#id2)" x="34.5103" y="33.2677" width="110.277" height="112.186"/>
      </mask>
 </defs>
 <g id="Layer_x0020_1">
  <metadata id="CorelCorpID_0Corel-Layer"/>
  <g id="_252229992">
   <g>
   </g>
   <g style="clip-path:url(#id0)">
    <g id="_250560496">
     <path id="_250560112" class="fil0" style="mask:url(#id1)" d="M39.6446 83.7352l-0.1231 -1.1993 0.1232 1.1993c0.7622,-3.0945 1.1171,-5.9924 2.0364,-9.162 2.3705,-8.1727 6.3872,-15.5711 12.2819,-21.7809 1.5392,-1.6215 4.3805,-4.1799 6.2416,-5.3627 2.2444,-1.4265 2.7262,2.5367 8.2672,1.7737 6.6018,-0.9092 9.164,-9.32 4.1849,-13.8034 -4.9893,-4.4927 -12.5676,-1.4686 -13.3828,5.2566 -0.2553,2.1055 -1.0945,2.1193 -2.6381,3.2436 -12.868,9.3716 -20.4033,24.8096 -21.9326,40.4786 -0.7812,11.853 0.7229,22.2729 6.7013,32.6786 10.1977,17.7498 29.0637,28.4097 49.5257,27.9764 2.5828,-0.0546 6.7714,-0.2915 9.2168,-0.9768 2.2077,-0.6186 3.3802,-2.607 0.9623,-3.9258 -2.2648,-1.2354 -5.7349,-0.3158 -8.2802,-0.1638 -17.8758,1.0669 -35.2005,-7.4138 -45.192,-22.2755 -4.21,-6.2621 -0.9527,-6.4967 4.6657,-9.1417 4.5391,-2.1368 9.0972,-4.3652 13.6624,-6.4299 4.7809,-2.1623 5.5228,2.3215 8.9844,7.8018 4.9406,7.8218 11.1637,15.33 18.5836,20.911 1.2491,0.9393 4.4547,3.2685 5.8406,3.638 1.9505,0.52 3.3209,-1.1973 2.9436,-3.1326 -0.3878,-1.9881 -2.8245,-3.1083 -4.3787,-4.248 -1.8541,-1.3599 -3.6904,-2.8407 -5.3973,-4.3817 -3.4131,-3.0817 -6.6662,-6.6022 -9.486,-10.2346 -1.7651,-2.2736 -7.0076,-9.5891 -7.6495,-12.0406 -0.6719,-2.5663 1.4973,-3.5153 3.3955,-4.4114l20.4711 -9.6631c6.584,-3.1046 7.3553,-3.8787 9.9198,3.6026 2.8467,8.3049 4.5004,17.0841 4.6706,25.8662 0.04,2.0606 -0.4264,6.9108 0.2251,8.5116 0.6886,1.6925 2.8878,3.4746 4.437,1.5732 1.0885,-1.3363 1.1023,-6.053 1.1124,-7.818 0.0649,-11.5738 -2.8835,-22.808 -7.0803,-33.5073 -0.9159,-2.3352 -0.6276,-4.0456 1.7061,-5.2711 2.8594,-1.5017 19.0111,-9.1679 20.3224,-9.1963 4.0881,-0.0879 4.9489,10.768 5.1513,13.6852 0.4298,6.2023 -0.2739,11.2354 -1.5612,17.2548l-0.0001 0.0001c-3.1656,11.4392 -8.761,21.2291 -17.6586,29.095 -1.1116,0.9826 -1.5737,1.8215 -2.9854,0.8503 -2.5178,-1.7318 -5.3593,-2.0382 -8.1795,-0.7762 -5.3471,2.3926 -6.1391,9.9316 -1.5644,13.5176 4.6591,3.6517 11.7433,1.1331 12.8685,-4.6912 0.3723,-1.9271 -0.2879,-2.343 1.4567,-3.7221 10.171,-8.0395 19.5527,-23.2533 21.4172,-35.5891 4.2526,-20.8067 -2.3412,-40.8657 -19.2675,-53.9998 -12.0573,-9.3561 -27.9845,-13.7143 -43.0566,-11.2144 -1.7798,0.2952 -4.5626,1.8792 -2.6794,3.7572 1.8086,1.8035 4.8862,0.8717 7.1728,0.707 15.167,-1.0917 29.7178,4.1751 40.3472,14.988 1.7706,1.801 7.7726,7.8824 6.49,10.4789 -0.8638,1.7489 -9.9435,5.4545 -12.1853,6.5108 -2.1897,1.0319 -4.3795,2.0641 -6.5695,3.0957 -5.891,2.7752 -5.5635,0.6438 -9.2868,-5.5383 -3.5273,-5.8569 -7.468,-11.1939 -12.4207,-15.9721 -2.0006,-1.9303 -8.203,-7.1985 -10.7358,-7.6943 -2.0055,-0.3922 -3.0467,1.4038 -2.2476,3.2388 1.2608,2.8956 10.6633,4.7466 22.1711,24.6654 3.688,6.3836 1.8073,6.3428 -4.1538,9.1553l-19.6899 9.2974c-1.7168,0.811 -4.0085,2.3258 -5.763,0.8309 -1.7621,-1.5014 -4.5388,-11.153 -5.212,-13.7503 -1.4422,-5.5625 -2.3051,-11.3087 -2.0105,-17.0662 0.1103,-2.156 0.944,-5.3202 -0.0486,-7.2041 -0.9826,-1.8644 -2.9419,-2.0143 -3.7942,-0.0451 -1.5693,3.6258 -1.1654,12.7888 -0.6445,16.761 0.7038,5.3661 2.0623,10.6643 3.8409,15.7717 2.3497,6.7485 4.8937,8.8255 -0.6774,11.4438 -4.3818,2.0594 -8.7597,4.1272 -13.1388,6.1922 -5.9144,2.789 -7.822,4.6299 -9.4452,-3.1828 -1.2542,-6.0363 -1.1645,-11.1423 -0.8804,-17.2358zm100.513 16.7626c0.0085,0 0.0177,-0.0006 0.0277,-0.0018 -0.01,0.0012 -0.0192,0.0018 -0.0277,0.0018zm0.6246 -0.277l0 -0.0001 2.427 -1.0764 -2.427 1.0765z"/>
    </g>
   </g>
   <path class="fil1 str0" d="M88.9002 19.9342c38.0888,0 68.9658,30.877 68.9658,68.9658 0,38.0888 -30.877,68.9658 -68.9658,68.9658 -38.0888,0 -68.9658,-30.877 -68.9658,-68.9658 0,-38.0888 30.877,-68.9658 68.9658,-68.9658z"/>
   <path class="fil0" d="M84.9779 24.6071c9.6236,-0.4829 19.3471,1.0053 27.4392,4.3249 5.5554,2.279 10.9767,5.1461 15.5066,8.7154 0.8499,0.6696 1.4477,1.137 2.1978,1.8023l2.1139 1.8853c1.6584,1.3774 2.7327,2.4462 4.1274,4.1035 0.3959,0.4705 0.5023,0.5084 0.9889,1.0057 0.4339,0.4433 0.4883,0.6411 0.8915,1.1114 8.6665,10.1066 14.0202,23.3413 14.9556,37.3467 0.6511,9.7495 -1.1229,19.3552 -4.3318,27.5151 -2.3646,6.013 -7.0593,14.148 -11.406,18.822 -0.3804,0.4091 -0.6367,0.5569 -1.0097,0.9844 -22.6209,25.9261 -65.2049,28.507 -90.8948,4.2438l-5.1044 -5.1195c-0.4113,-0.4187 -0.5156,-0.6262 -0.9237,-1.0832 -8.4446,-9.4544 -14.0901,-24.0874 -14.9257,-37.3169 -2.3074,-36.5328 26.309,-66.6317 60.3752,-68.3409zm-68.196 68.0686c1.8144,38.6212 34.943,70.2811 75.8986,68.3381 38.4889,-1.826 70.2874,-34.8296 68.3355,-75.8553 -0.5037,-10.5884 -3.395,-20.3379 -7.5642,-28.5959 -2.1064,-4.1721 -4.4772,-7.8487 -6.8767,-11.1152 -3.2116,-4.3721 -5.0225,-5.8548 -8.5931,-9.4123 -0.9638,-0.9602 -1.3774,-1.3191 -2.4065,-2.2543 -0.4619,-0.4197 -0.7981,-0.5814 -1.2571,-0.9659 -13.2442,-11.0942 -31.2975,-16.8566 -49.2015,-16.0367 -38.5996,1.7675 -70.2568,34.9925 -68.335,75.8975z"/>
   <g id="_250561216">
    <path id="_250561552" class="fil0" d="M62.6276 86.8409c-0.0447,-2.3682 8.8998,-13.8907 3.7933,-30.4165 -0.391,-1.2651 -1.0621,-2.6973 -1.3207,-3.8201 -0.9761,1.1054 -2.7978,5.8246 -3.4405,7.1985 -6.4947,13.8831 -12.8427,28.9693 -19.2882,43.0076 -1.0079,2.1954 -2.5046,5.0751 -3.1891,7.2595l12.864 -0.0025c2.3332,-3.9212 4.2354,-7.0383 8.7862,-9.4211 10.7645,-5.6364 18.4464,0.8454 20.8885,-6.442 0.8823,-2.6328 -0.4678,-5.1788 -1.9845,-6.2712 -2.1012,-1.5135 -5.1703,-1.0988 -8.1968,-1.0988 -2.9704,0 -5.9419,-0.0072 -8.9122,0.0066z"/>
    <path id="_250561144" class="fil0" d="M109.092 110.859c-0.8764,-2.5825 -2.773,-6.2764 -3.9668,-8.882 -1.3684,-2.987 -2.6914,-6.0331 -4.0095,-8.9856 -2.8091,-6.292 -5.6623,-12.73 -8.5316,-19.1448l-0.0002 -0.0004c-1.323,-2.9637 -6.0726,-13.8081 -9.5749,-21.0045 -2.3481,-4.8247 -1.9993,-6.518 -6.4447,-6.8623l-9.2391 -0.7156 0.8497 1.9596 -0.0526 -0.0096c0.7707,2.2114 2.9057,6.7349 3.9582,9.1642 1.4337,3.3093 2.8877,6.6644 4.3554,10.0439 2.7182,6.2589 5.4837,12.6017 8.2548,18.8929l0.0012 0.0026c2.457,5.5781 4.9185,11.1157 7.3553,16.5182 1.6419,3.6404 2.6453,5.5433 5.6733,7.3246 2.7462,1.6156 7.7764,2.4187 11.3715,1.6988z"/>
    <path id="_250560952" class="fil0" d="M127.392 51.2843c-3.1407,1.7409 -5.7383,4.2189 -7.5109,7.3627 -1.7248,3.059 -11.7766,29.9129 -13.5886,34.3496 -0.9362,2.2922 -1.3649,2.2702 -0.2909,4.5142 1.1121,2.3234 4.9378,11.4908 5.6684,12.2974l20.8526 -50.4839 4.3445 -10.4514c-4.5659,-0.731 -9.4752,2.4114 -9.4752,2.4114l0.0001 0z"/>
   </g>
   <path class="fil2" d="M52.0956 128.883l-0.4711 -1.7929 -3.1079 0 -0.4845 1.7929 -2.8378 0 3.1191 -9.6028 3.4473 0 3.1592 9.6028 -2.8243 0zm-1.007 -3.9117l-0.413 -1.5696c-0.096,-0.3483 -0.2121,-0.7993 -0.3506,-1.3552 -0.1362,-0.5537 -0.2277,-0.9489 -0.2701,-1.1901 -0.0402,0.2233 -0.1161,0.5895 -0.2322,1.0985 -0.1161,0.5113 -0.3729,1.516 -0.7681,3.0164l2.034 0zm9.6989 -5.651l2.8913 0 -3.1324 9.5627 -3.0432 0 -3.1191 -9.5627 2.9047 0 1.3017 4.8472c0.2702,1.0762 0.4175,1.8264 0.4443,2.2484 0.0313,-0.3037 0.0916,-0.6855 0.1831,-1.1432 0.0915,-0.4577 0.1719,-0.8171 0.2411,-1.0806l1.3285 -4.8718zm13.03 9.5627l-3.3892 0 -3.492 -6.7383 -0.058 0c0.0826,1.0605 0.1228,1.8688 0.1228,2.427l0 4.3113 -2.2886 0 0 -9.5627 3.3759 0 3.4785 6.6446 0.0402 0c-0.0625,-0.9623 -0.0915,-1.7371 -0.0915,-2.322l0 -4.3226 2.3019 0 0 9.5627zm7.7452 0l-5.6778 0 0 -9.5627 5.6778 0 0 2.072 -3.0945 0 0 1.5048 2.8645 0 0 2.0742 -2.8645 0 0 1.8063 3.0945 0 0 2.1054zm5.8943 0l-2.5854 0 0 -7.4505 -2.3354 0 0 -2.1122 7.2495 0 0 2.1122 -2.3287 0 0 7.4505zm14.0236 0l-3.0543 0 -0.9154 -4.1662c-0.0447,-0.1742 -0.1139,-0.5225 -0.2077,-1.0405 -0.0937,-0.5179 -0.1607,-0.9533 -0.2054,-1.3016 -0.0357,0.2835 -0.0915,0.6363 -0.1697,1.056 -0.0781,0.422 -0.1563,0.8083 -0.2322,1.1611 -0.0759,0.3527 -0.3929,1.7839 -0.9511,4.2912l-3.0566 0 -2.3666 -9.5627 2.4917 0 1.0404 4.7937c0.2344,1.0605 0.3974,1.9044 0.4845,2.5318 0.0558,-0.4443 0.1563,-1.0493 0.3037,-1.8107 0.1451,-0.7636 0.2813,-1.3954 0.4085,-1.8978l0.844 -3.617 2.3934 0 0.8172 3.617c0.1407,0.5805 0.2813,1.2481 0.4265,2.0072 0.1429,0.7591 0.2389,1.3262 0.288,1.7013 0.0558,-0.4845 0.2099,-1.324 0.4644,-2.5185l1.0583 -4.807 2.4939 0 -2.3555 9.5627zm12.4072 -4.7936c0,1.6075 -0.3952,2.8311 -1.1856,3.6683 -0.7881,0.8373 -1.9446,1.257 -3.4651,1.257 -1.5004,0 -2.6502,-0.422 -3.4518,-1.2637 -0.7993,-0.8417 -1.1989,-2.0675 -1.1989,-3.675 0,-1.5919 0.3974,-2.8087 1.1922,-3.6482 0.7971,-0.8395 1.9536,-1.2593 3.4719,-1.2593 1.5205,0 2.6748,0.4175 3.4584,1.2503 0.7859,0.8328 1.1789,2.0564 1.1789,3.6706zm-6.582 0c0,1.8487 0.6453,2.773 1.9313,2.773 0.6542,0 1.1387,-0.2255 1.4557,-0.6743 0.3148,-0.4487 0.4733,-1.1498 0.4733,-2.0987 0,-0.9556 -0.1607,-1.6611 -0.48,-2.1166 -0.3215,-0.4555 -0.7993,-0.6832 -1.4356,-0.6832 -1.2972,0 -1.9447,0.9333 -1.9447,2.7998zm10.8911 1.3128l0 3.4808 -2.5833 0 0 -9.5627 3.1325 0c2.5989,0 3.8983,0.9422 3.8983,2.8244 0,1.1097 -0.5403,1.9648 -1.6209,2.5721l2.7864 4.1662 -2.9316 0 -2.0272 -3.4808 -0.6542 0zm0 -1.9424l0.4845 0c0.902,0 1.353,-0.3974 1.353,-1.1968 0,-0.6586 -0.4421,-0.9868 -1.3262,-0.9868l-0.5113 0 0 2.1836zm14.6532 5.4232l-2.9181 0 -1.8889 -3.6572 -0.7658 0.4577 0 3.1995 -2.5967 0 0 -9.5627 2.5967 0 0 4.1529c0.1317,-0.2568 0.3952,-0.6654 0.7903,-1.2236l2.0095 -2.9293 2.8266 0 -3.0164 4.2846 2.9628 5.2781z"/>
   <path class="fil2" d="M53.1094 133.159c-0.2687,0 -0.4788,0.1104 -0.6293,0.3312 -0.1515,0.2199 -0.2267,0.5238 -0.2267,0.9118 0,0.8052 0.3068,1.2078 0.9195,1.2078 0.1847,0 0.3645,-0.0254 0.5375,-0.0772 0.1739,-0.0518 0.3489,-0.1133 0.5238,-0.1856l0 0.9557c-0.3489,0.1544 -0.7437,0.2326 -1.1844,0.2326 -0.6323,0 -1.116,-0.1838 -1.4531,-0.5502 -0.3372,-0.3665 -0.5052,-0.8961 -0.5052,-1.589 0,-0.4329 0.0811,-0.814 0.2443,-1.1423 0.1632,-0.3284 0.3977,-0.5805 0.7045,-0.7574 0.3059,-0.1759 0.6665,-0.2648 1.0808,-0.2648 0.4525,0 0.8844,0.0987 1.2968,0.2951l-0.3459 0.8903c-0.1554,-0.0724 -0.3098,-0.1339 -0.4642,-0.1828 -0.1544,-0.0498 -0.3205,-0.0752 -0.4984,-0.0752zm5.7411 1.2205c0,0.7036 -0.1729,1.2391 -0.5189,1.6056 -0.3449,0.3664 -0.8511,0.5502 -1.5166,0.5502 -0.6567,0 -1.16,-0.1847 -1.5108,-0.5531 -0.3498,-0.3685 -0.5247,-0.905 -0.5247,-1.6085 0,-0.6968 0.1739,-1.2294 0.5218,-1.5968 0.3489,-0.3675 0.855,-0.5512 1.5196,-0.5512 0.6654,0 1.1707,0.1828 1.5137,0.5473 0.3439,0.3645 0.5159,0.9 0.5159,1.6065zm-2.8808 0c0,0.8092 0.2824,1.2137 0.8453,1.2137 0.2863,0 0.4984,-0.0987 0.6371,-0.2951 0.1378,-0.1964 0.2072,-0.5033 0.2072,-0.9186 0,-0.4182 -0.0704,-0.727 -0.2101,-0.9264 -0.1407,-0.1993 -0.3498,-0.299 -0.6283,-0.299 -0.5678,0 -0.8512,0.4085 -0.8512,1.2254zm7.6213 2.0981l-1.4834 0 -1.5283 -2.9492 -0.0254 0c0.0361,0.4641 0.0537,0.8179 0.0537,1.0622l0 1.887 -1.0016 0 0 -4.1854 1.4775 0 1.5225 2.9082 0.0176 0c-0.0274,-0.4212 -0.0401,-0.7603 -0.0401,-1.0163l0 -1.8919 1.0075 0 0 4.1854zm4.89 0l-1.4834 0 -1.5283 -2.9492 -0.0254 0c0.0361,0.4641 0.0537,0.8179 0.0537,1.0622l0 1.887 -1.0016 0 0 -4.1854 1.4775 0 1.5225 2.9082 0.0176 0c-0.0274,-0.4212 -0.0401,-0.7603 -0.0401,-1.0163l0 -1.8919 1.0075 0 0 4.1854zm3.39 0l-2.485 0 0 -4.1854 2.485 0 0 0.9068 -1.3544 0 0 0.6587 1.2538 0 0 0.9078 -1.2538 0 0 0.7906 1.3544 0 0 0.9215zm2.5965 -3.3186c-0.2687,0 -0.4788,0.1104 -0.6293,0.3312 -0.1515,0.2199 -0.2267,0.5238 -0.2267,0.9118 0,0.8052 0.3068,1.2078 0.9195,1.2078 0.1847,0 0.3645,-0.0254 0.5375,-0.0772 0.1739,-0.0518 0.3489,-0.1133 0.5238,-0.1856l0 0.9557c-0.3489,0.1544 -0.7437,0.2326 -1.1844,0.2326 -0.6323,0 -1.116,-0.1838 -1.4531,-0.5502 -0.3372,-0.3665 -0.5052,-0.8961 -0.5052,-1.589 0,-0.4329 0.0811,-0.814 0.2443,-1.1423 0.1632,-0.3284 0.3977,-0.5805 0.7045,-0.7574 0.3059,-0.1759 0.6665,-0.2648 1.0808,-0.2648 0.4525,0 0.8844,0.0987 1.2968,0.2951l-0.3459 0.8903c-0.1554,-0.0724 -0.3098,-0.1339 -0.4642,-0.1828 -0.1544,-0.0498 -0.3205,-0.0752 -0.4984,-0.0752zm3.7887 3.3186l-1.1316 0 0 -3.261 -1.0222 0 0 -0.9244 3.173 0 0 0.9244 -1.0192 0 0 3.261zm1.6173 0l0 -4.1854 1.1365 0 0 4.1854 -1.1365 0zm6.0264 0l-1.4834 0 -1.5283 -2.9492 -0.0254 0c0.0361,0.4641 0.0537,0.8179 0.0537,1.0622l0 1.887 -1.0016 0 0 -4.1854 1.4775 0 1.5225 2.9082 0.0176 0c-0.0274,-0.4212 -0.0401,-0.7603 -0.0401,-1.0163l0 -1.8919 1.0075 0 0 4.1854zm2.5858 -2.4509l1.8059 0 0 2.2564c-0.4906,0.1681 -1.029,0.2522 -1.6173,0.2522 -0.645,0 -1.1434,-0.1877 -1.4962,-0.5619 -0.3517,-0.3733 -0.5276,-0.9069 -0.5276,-1.5997 0,-0.6763 0.1925,-1.202 0.5775,-1.5783 0.386,-0.3752 0.9264,-0.5638 1.6212,-0.5638 0.2629,0 0.5121,0.0254 0.7456,0.0743 0.2336,0.0498 0.4378,0.1133 0.6108,0.1895l-0.3577 0.8874c-0.301,-0.1486 -0.6323,-0.2238 -0.9928,-0.2238 -0.3303,0 -0.5864,0.1075 -0.7662,0.3225 -0.1808,0.2149 -0.2707,0.5218 -0.2707,0.9205 0,0.3909 0.0811,0.6899 0.2443,0.8941 0.1632,0.2053 0.3987,0.3079 0.7066,0.3079 0.168,0 0.3224,-0.0157 0.4632,-0.0479l0 -0.6557 -0.7466 0 0 -0.8737zm6.0294 2.4509l-1.1316 0 0 -3.261 -1.0222 0 0 -0.9244 3.173 0 0 0.9244 -1.0192 0 0 3.261zm5.2046 0l-1.1365 0 0 -1.7062 -1.3143 0 0 1.7062 -1.1365 0 0 -4.1854 1.1365 0 0 1.5518 1.3143 0 0 -1.5518 1.1365 0 0 4.1854zm3.39 0l-2.485 0 0 -4.1854 2.485 0 0 0.9068 -1.3544 0 0 0.6587 1.2538 0 0 0.9078 -1.2538 0 0 0.7906 1.3544 0 0 0.9215zm6.7771 0l-1.3369 0 -0.4006 -1.8235c-0.0196,-0.0762 -0.0499,-0.2287 -0.0909,-0.4554 -0.0411,-0.2267 -0.0704,-0.4172 -0.0899,-0.5697 -0.0157,0.1241 -0.0401,0.2785 -0.0743,0.4622 -0.0342,0.1847 -0.0684,0.3538 -0.1016,0.5082 -0.0332,0.1544 -0.172,0.7808 -0.4163,1.8782l-1.3378 0 -1.0359 -4.1854 1.0906 0 0.4554 2.0981c0.1026,0.4641 0.1739,0.8335 0.212,1.1081 0.0245,-0.1944 0.0684,-0.4593 0.1329,-0.7925 0.0636,-0.3342 0.1232,-0.6108 0.1789,-0.8306l0.3694 -1.5831 1.0475 0 0.3577 1.5831c0.0616,0.254 0.1231,0.5462 0.1866,0.8785 0.0626,0.3322 0.1046,0.5805 0.1261,0.7446 0.0244,-0.212 0.0919,-0.5795 0.2033,-1.1023l0.4632 -2.1039 1.0915 0 -1.0309 4.1854zm5.4303 -2.0981c0,0.7036 -0.1729,1.2391 -0.5189,1.6056 -0.3449,0.3664 -0.8511,0.5502 -1.5166,0.5502 -0.6567,0 -1.16,-0.1847 -1.5108,-0.5531 -0.3498,-0.3685 -0.5247,-0.905 -0.5247,-1.6085 0,-0.6968 0.1739,-1.2294 0.5218,-1.5968 0.3489,-0.3675 0.855,-0.5512 1.5196,-0.5512 0.6654,0 1.1707,0.1828 1.5137,0.5473 0.3439,0.3645 0.5159,0.9 0.5159,1.6065zm-2.8808 0c0,0.8092 0.2824,1.2137 0.8453,1.2137 0.2863,0 0.4984,-0.0987 0.6371,-0.2951 0.1378,-0.1964 0.2072,-0.5033 0.2072,-0.9186 0,-0.4182 -0.0704,-0.727 -0.2101,-0.9264 -0.1407,-0.1993 -0.3498,-0.299 -0.6283,-0.299 -0.5678,0 -0.8512,0.4085 -0.8512,1.2254zm4.7669 0.5746l0 1.5235 -1.1306 0 0 -4.1854 1.371 0c1.1375,0 1.7062,0.4124 1.7062,1.2362 0,0.4856 -0.2365,0.8599 -0.7095,1.1257l1.2196 1.8235 -1.2831 0 -0.8873 -1.5235 -0.2863 0zm0 -0.8502l0.212 0c0.3948,0 0.5922,-0.1739 0.5922,-0.5237 0,-0.2883 -0.1934,-0.432 -0.5804,-0.432l-0.2238 0 0 0.9557zm2.8379 2.3737l0 -4.1854 1.1306 0 0 3.2717 1.6124 0 0 0.9137 -2.743 0zm6.9655 -2.1811c0,0.6977 -0.1925,1.2361 -0.5775,1.6143 -0.3841,0.3782 -0.9245,0.5668 -1.6212,0.5668l-1.3544 0 0 -4.1854 1.4482 0c0.6723,0 1.1912,0.172 1.5567,0.515 0.3655,0.344 0.5482,0.8404 0.5482,1.4893zm-1.1746 0.04c0,-0.384 -0.0752,-0.6684 -0.2267,-0.8531 -0.1525,-0.1857 -0.3831,-0.2785 -0.6919,-0.2785l-0.3293 0 0 2.3453 0.2521 0c0.344,0 0.5951,-0.0997 0.7554,-0.299 0.1603,-0.1994 0.2404,-0.5043 0.2404,-0.9147z"/>
  </g>
 </g>
</svg>
